# xmcd
#
# Track frame offsets: 
#        150
#        12535
#        25810
#        40217
#        56255
#        73200
#        92399
#        104697
#        114822
#        124516
#        136851
#        147800
#        169473
#        186183
#        200808
#        220612
#        246700
#        261846
#        280183
#        300952
#        317750
#        334030
#        354325
#
# Disc length: 4790 seconds
#
# Revision: 0
# Processed by: cddbd v1.5.2PL0 Copyright (c) Steve Scherf et al.
# Submitted via: ExactAudioCopy v0.99pb3
#
DISCID=5312b417
DTITLE=Tom Waits - Greatest Hits [CD1]
DYEAR=2008
DGENRE=Blues
TTITLE0=Singapore
TTITLE1=Rain Dogs
TTITLE2=I'll Be Gone
TTITLE3=Strange Weather
TTITLE4=Clap Hands
TTITLE5=Telephone Call from Istanbul
TTITLE6=Jockey Full of Bourbon
TTITLE7=Down, Down, Down
TTITLE8=Lie to Me
TTITLE9=Hang on St. Christopher
TTITLE10=Yesterday Is Here
TTITLE11=Romeo Is Bleeding
TTITLE12=Little Boy Blue
TTITLE13=Whistlin' Past the Graveyard
TTITLE14='Til the Money Runs Out
TTITLE15=Blue Valentines
TTITLE16=The Black Rider
TTITLE17=Big in Japan
TTITLE18=Black Wings
TTITLE19=Starving in the Belly of a Whale
TTITLE20=Just the Right Bullets
TTITLE21=Alice
TTITLE22=Bend Down the Branches
EXTD=
EXTT0=
EXTT1=
EXTT2=
EXTT3=
EXTT4=
EXTT5=
EXTT6=
EXTT7=
EXTT8=
EXTT9=
EXTT10=
EXTT11=
EXTT12=
EXTT13=
EXTT14=
EXTT15=
EXTT16=
EXTT17=
EXTT18=
EXTT19=
EXTT20=
EXTT21=
EXTT22=
PLAYORDER=
